<svg width="1512" height="455" viewBox="0 0 1512 455" fill="none" xmlns="http://www.w3.org/2000/svg">
<rect x="1512" y="455" width="1512" height="294.217" transform="rotate(-180 1512 455)" fill="#16002B"/>
<path fill-rule="evenodd" clip-rule="evenodd" d="M1512 22.9996L1449 41.533C1386 60.0664 1295 6.78293 1222.5 91.3415C1150 175.9 916 38.4441 756 4.46626C596 -29.5116 508.5 143.467 378 83.2331C247.5 22.9997 102.5 61.6109 63 41.533C23.5 21.4551 0 22.9996 0 22.9996V162H63C126 162 252 162 378 162C504 162 630 162 756 162C882 162 1008 162 1134 162C1260 162 1386 162 1449 162H1512V22.9996Z" fill="#16002B"/>
</svg>
