<svg width="180" height="37" viewBox="0 0 180 37" fill="none" xmlns="http://www.w3.org/2000/svg">
<path d="M35.656 13.6564C35.656 6.62345 29.9547 0.922119 22.9217 0.922119H13.4171C11.6334 0.922119 10.1874 2.36811 10.1874 4.15183C10.1874 5.93554 11.6334 7.38153 13.4171 7.38153H22.8294C26.3969 7.38153 29.2889 10.2735 29.2889 13.8409C29.2889 17.4084 26.3969 20.3004 22.8294 20.3004H13.4171C11.6334 20.3004 10.1874 21.7464 10.1874 23.5301C10.1874 25.3138 11.6334 26.7598 13.4171 26.7598H22.9217C29.9547 26.7598 35.656 21.0584 35.656 14.0255V13.6564Z" fill="#FEC753"/>
<path d="M12.1943 10.7404C5.45959 10.7404 0 16.2 0 22.9348V33.3945C0 35.1528 1.42533 36.5781 3.18357 36.5781C4.94181 36.5781 6.36714 35.1528 6.36714 33.3945V23.043C6.36714 19.8159 8.9832 17.1999 12.2103 17.1999H22.7951C24.5788 17.1999 26.0248 15.7539 26.0248 13.9702C26.0248 12.1864 24.5788 10.7404 22.7951 10.7404H12.1943Z" fill="#8A4BDE"/>
<path d="M49.0991 21.6229V29H46.1165V5.94657H52.6579C54.5118 6.19632 56.0775 6.95996 57.3551 8.23751C58.8824 9.7744 59.646 11.6187 59.646 13.7703C59.646 15.9412 58.8824 17.7951 57.3551 19.332C55.8278 20.8593 53.9835 21.6229 51.8222 21.6229H49.0991ZM49.0991 8.94352V18.626H51.8222C53.1478 18.626 54.2813 18.1553 55.2226 17.2139C56.1736 16.263 56.6491 15.1151 56.6491 13.7703C56.6491 12.4352 56.1736 11.2969 55.2226 10.3555C54.2813 9.41419 53.1478 8.94352 51.8222 8.94352H49.0991ZM74.1553 22.2857V20.0956C73.9824 19.1639 73.5213 18.3186 72.772 17.5597C71.7635 16.5608 70.5532 16.0613 69.1411 16.0613C67.7195 16.0613 66.5044 16.5608 65.4958 17.5597C64.4968 18.5587 63.9973 19.769 63.9973 21.1907C63.9973 22.6027 64.4968 23.813 65.4958 24.8216C66.5044 25.8205 67.7195 26.32 69.1411 26.32C70.5532 26.32 71.7635 25.8205 72.772 24.8216C73.5213 24.0627 73.9824 23.2174 74.1553 22.2857ZM74.1553 15.2112V14.1738H77.1522V29.0144H74.1553V27.1557C72.7144 28.6446 71.043 29.389 69.1411 29.389C66.8742 29.389 64.9387 28.5918 63.3345 26.9972C61.74 25.3931 60.9428 23.4576 60.9428 21.1907C60.9428 18.9237 61.74 16.993 63.3345 15.3985C64.9387 13.7943 66.8742 12.9923 69.1411 12.9923C71.043 12.9923 72.7144 13.7319 74.1553 15.2112ZM85.1489 33.9853H81.9934L85.9413 25.7005L80.4229 14.1738H83.7801L87.5406 22.2857L91.3012 14.1738H94.644L85.1489 33.9853ZM100.926 18.1505V29H97.9291V14.1738H100.926V15.9028C101.55 14.2122 102.804 13.3669 104.687 13.3669C106.291 13.3669 107.564 13.9384 108.505 15.0815C109.456 16.215 109.946 17.6414 109.975 19.3608V29H106.992V19.4761C106.992 18.6212 106.68 17.8911 106.055 17.286C105.431 16.6712 104.687 16.3638 103.822 16.3638C102.967 16.3638 102.228 16.6616 101.603 17.2572C101.257 17.6126 101.032 17.9103 100.926 18.1505ZM127.207 22.2857V20.0956C127.034 19.1639 126.573 18.3186 125.824 17.5597C124.815 16.5608 123.605 16.0613 122.193 16.0613C120.771 16.0613 119.556 16.5608 118.548 17.5597C117.549 18.5587 117.049 19.769 117.049 21.1907C117.049 22.6027 117.549 23.813 118.548 24.8216C119.556 25.8205 120.771 26.32 122.193 26.32C123.605 26.32 124.815 25.8205 125.824 24.8216C126.573 24.0627 127.034 23.2174 127.207 22.2857ZM127.207 15.2112V14.1738H130.204V29.0144H127.207V27.1557C125.766 28.6446 124.095 29.389 122.193 29.389C119.926 29.389 117.99 28.5918 116.386 26.9972C114.792 25.3931 113.994 23.4576 113.994 21.1907C113.994 18.9237 114.792 16.993 116.386 15.3985C117.99 13.7943 119.926 12.9923 122.193 12.9923C124.095 12.9923 125.766 13.7319 127.207 15.2112ZM146.298 23.9138L149.281 24.9801C148.551 25.9886 148.022 26.6562 147.696 26.9828C146.092 28.587 144.156 29.389 141.889 29.389C139.632 29.389 137.701 28.587 136.097 26.9828C134.493 25.3787 133.691 23.4432 133.691 21.1762C133.691 18.9093 134.493 16.9738 136.097 15.3697C137.701 13.7655 139.632 12.9635 141.889 12.9635C144.156 12.9635 146.092 13.7655 147.696 15.3697C148.022 15.6963 148.551 16.3542 149.281 17.3436L146.298 18.4386C145.914 17.968 145.654 17.6654 145.52 17.5309C144.521 16.5319 143.311 16.0324 141.889 16.0324C140.477 16.0324 139.267 16.5367 138.258 17.5453C137.259 18.5443 136.76 19.7546 136.76 21.1762C136.76 22.5883 137.259 23.7986 138.258 24.8072C139.267 25.8061 140.477 26.3056 141.889 26.3056C143.311 26.3056 144.526 25.8061 145.534 24.8072C145.659 24.6727 145.914 24.3749 146.298 23.9138ZM155.736 5.93216V29H152.739V5.93216H155.736ZM164.669 25.6428C165.168 26.0847 166.076 26.3056 167.392 26.3056C168.814 26.3056 170.029 25.8061 171.037 24.8072C171.162 24.6727 171.417 24.3749 171.801 23.9138L174.783 24.9801C174.053 25.9886 173.525 26.6562 173.199 26.9828C171.594 28.587 169.659 29.389 167.392 29.389C165.135 29.389 163.204 28.587 161.6 26.9828C159.996 25.3787 159.194 23.4432 159.194 21.1762C159.194 18.9093 159.996 16.9738 161.6 15.3697C163.204 13.7655 165.135 12.9635 167.392 12.9635C169.332 12.9635 171.032 13.5494 172.493 14.7213C172.733 14.923 172.968 15.1391 173.199 15.3697C173.295 15.4657 173.568 15.7683 174.02 16.2774L172.521 17.7903L164.669 25.6428ZM169.654 16.4215C169.318 16.1621 168.564 16.0324 167.392 16.0324C165.98 16.0324 164.77 16.5367 163.761 17.5453C162.762 18.5443 162.263 19.7546 162.263 21.1762C162.263 22.3385 162.392 23.0926 162.652 23.4384L169.654 16.4215Z" fill="#FAF8FC"/>
</svg>
