<svg width="121" height="33" viewBox="0 0 121 33" fill="none" xmlns="http://www.w3.org/2000/svg">
<g clip-path="url(#clip0_421_561)">
<path d="M67.1651 11.3721C67.0226 11.0032 66.8045 10.6682 66.5247 10.3887C66.2449 10.1093 65.9097 9.89149 65.5407 9.74945C65.0325 9.56123 64.4958 9.46175 63.9539 9.45535C63.0528 9.41431 62.7827 9.40405 60.5 9.40405C58.2173 9.40405 57.9472 9.41431 57.0461 9.45535C56.5036 9.46156 55.9663 9.56104 55.4576 9.74945C55.0887 9.89188 54.7537 10.11 54.4742 10.3898C54.1948 10.6696 53.977 11.0048 53.8349 11.3738C53.6467 11.882 53.5472 12.4187 53.5408 12.9606C53.4998 13.8617 53.4895 14.1318 53.4895 16.4145C53.4895 18.6972 53.4998 18.9673 53.5408 19.8684C53.547 20.4109 53.6465 20.9482 53.8349 21.4569C53.9774 21.8258 54.1955 22.1608 54.4753 22.4403C54.755 22.7197 55.0902 22.9375 55.4593 23.0796C55.9675 23.2678 56.5042 23.3673 57.0461 23.3737C57.9472 23.4147 58.2173 23.425 60.5 23.425C62.7827 23.425 63.0528 23.4147 63.9539 23.3737C64.4964 23.3675 65.0337 23.268 65.5424 23.0796C65.9113 22.9371 66.2463 22.719 66.5258 22.4392C66.8052 22.1595 67.023 21.8243 67.1651 21.4552C67.3533 20.947 67.4527 20.4103 67.4592 19.8684C67.5002 18.9673 67.5104 18.6972 67.5104 16.4145C67.5104 14.1318 67.5002 13.8617 67.4592 12.9606C67.4529 12.4181 67.3535 11.8808 67.1651 11.3721ZM60.5 20.8054C59.6315 20.8054 58.7826 20.5479 58.0605 20.0654C57.3384 19.583 56.7756 18.8972 56.4433 18.0948C56.111 17.2925 56.024 16.4096 56.1934 15.5579C56.3628 14.7061 56.781 13.9237 57.3951 13.3096C58.0092 12.6956 58.7916 12.2774 59.6434 12.1079C60.4951 11.9385 61.378 12.0255 62.1803 12.3578C62.9827 12.6901 63.6684 13.2529 64.1509 13.975C64.6334 14.6971 64.8909 15.5461 64.8909 16.4145C64.8909 17.5791 64.4283 18.6959 63.6049 19.5194C62.7814 20.3428 61.6645 20.8054 60.5 20.8054ZM65.0636 12.8768C64.8607 12.8768 64.6624 12.8166 64.4937 12.7039C64.3249 12.5912 64.1934 12.4309 64.1158 12.2435C64.0381 12.056 64.0178 11.8497 64.0574 11.6507C64.097 11.4517 64.1947 11.2689 64.3382 11.1254C64.4817 10.982 64.6645 10.8843 64.8635 10.8447C65.0625 10.8051 65.2688 10.8254 65.4562 10.903C65.6437 10.9807 65.8039 11.1122 65.9166 11.2809C66.0294 11.4496 66.0895 11.648 66.0895 11.8509C66.0895 12.123 65.9815 12.3839 65.7891 12.5763C65.5967 12.7687 65.3357 12.8768 65.0636 12.8768Z" fill="#FEC753"/>
<path d="M60.5 19.2649C62.0742 19.2649 63.3503 17.9888 63.3503 16.4146C63.3503 14.8404 62.0742 13.5642 60.5 13.5642C58.9258 13.5642 57.6496 14.8404 57.6496 16.4146C57.6496 17.9888 58.9258 19.2649 60.5 19.2649Z" fill="#FEC753"/>
<path d="M60.5 0C57.2535 0 54.0799 0.962707 51.3805 2.76638C48.6811 4.57006 46.5772 7.13369 45.3348 10.1331C44.0924 13.1325 43.7673 16.4329 44.4007 19.6171C45.034 22.8012 46.5974 25.7261 48.893 28.0217C51.1887 30.3173 54.1135 31.8807 57.2976 32.5141C60.4818 33.1474 63.7822 32.8224 66.7816 31.58C69.781 30.3376 72.3447 28.2337 74.1484 25.5343C75.952 22.8349 76.9147 19.6613 76.9147 16.4147C76.9147 14.2591 76.4902 12.1246 75.6652 10.1331C74.8403 8.14156 73.6312 6.33201 72.107 4.80776C70.5827 3.28351 68.7732 2.07441 66.7816 1.2495C64.7901 0.42458 62.6556 0 60.5 0ZM68.998 19.9405C68.9834 20.6494 68.8487 21.3507 68.5996 22.0145C68.3801 22.5824 68.0443 23.098 67.6138 23.5285C67.1833 23.959 66.6676 24.2948 66.0998 24.5144C65.4359 24.7634 64.7346 24.8981 64.0257 24.9128C63.1127 24.9538 62.822 24.9641 60.5 24.9641C58.178 24.9641 57.8873 24.9538 56.9743 24.9128C56.2654 24.8981 55.5641 24.7634 54.9002 24.5144C54.3324 24.2948 53.8167 23.959 53.3862 23.5285C52.9557 23.098 52.6199 22.5824 52.4004 22.0145C52.1513 21.3507 52.0166 20.6494 52.002 19.9405C51.9609 19.0274 51.9507 18.7367 51.9507 16.4147C51.9507 14.0927 51.9609 13.8021 52.002 12.889C52.0166 12.1801 52.1513 11.4788 52.4004 10.8149C52.6199 10.2471 52.9557 9.73143 53.3862 9.30095C53.8167 8.87047 54.3324 8.53468 54.9002 8.31509C55.5641 8.06606 56.2654 7.93136 56.9743 7.91669C57.8873 7.87565 58.178 7.86539 60.5 7.86539C62.822 7.86539 63.1127 7.87565 64.0257 7.91669C64.7346 7.93136 65.4359 8.06606 66.0998 8.31509C66.6676 8.53468 67.1833 8.87047 67.6138 9.30095C68.0443 9.73143 68.3801 10.2471 68.5996 10.8149C68.8487 11.4788 68.9834 12.1801 68.998 12.889C69.0391 13.8021 69.0493 14.0927 69.0493 16.4147C69.0493 18.7367 69.0391 19.0274 68.998 19.9405Z" fill="#FEC753"/>
</g>
<path d="M16.4141 0C7.36349 0 0 7.36349 0 16.4144C0 25.4657 7.36349 32.8295 16.4141 32.8295C25.4654 32.8295 32.8289 25.4657 32.8289 16.4144C32.8286 7.36349 25.4651 0 16.4141 0ZM25.1503 12.1334C24.7151 12.7851 24.1739 13.3595 23.549 13.8326C23.5517 13.9278 23.5534 14.023 23.5534 14.1183C23.5534 18.9052 19.911 23.8565 13.8153 23.8565C11.9551 23.8574 10.1338 23.3239 8.56798 22.3196C8.51216 22.284 8.4701 22.2305 8.44869 22.1678C8.42729 22.1051 8.42781 22.037 8.45017 21.9747C8.47192 21.912 8.51451 21.8587 8.57082 21.8236C8.62714 21.7885 8.69378 21.7738 8.75964 21.7819C9.01666 21.8115 9.27133 21.8261 9.51691 21.8261C10.7126 21.8261 11.852 21.5046 12.8523 20.8904C12.2499 20.745 11.6951 20.4469 11.2412 20.025C10.7874 19.603 10.4498 19.0713 10.261 18.4811C10.2455 18.4327 10.2429 18.381 10.2534 18.3312C10.2639 18.2815 10.2871 18.2353 10.3208 18.1971C10.3545 18.159 10.3976 18.1303 10.4458 18.114C10.4941 18.0977 10.5457 18.0943 10.5957 18.1042C10.6508 18.1148 10.7062 18.1239 10.7613 18.1315C9.74345 17.4829 9.08318 16.3426 9.08318 15.0801V15.0382C9.08321 14.9872 9.09654 14.9371 9.12187 14.8928C9.1472 14.8486 9.18364 14.8117 9.2276 14.7858C9.27155 14.7599 9.3215 14.746 9.37249 14.7453C9.42349 14.7447 9.47378 14.7573 9.51838 14.7821C9.64586 14.8527 9.77803 14.914 9.91372 14.9655C9.39292 14.3219 9.10921 13.5187 9.11014 12.6908C9.11014 12.0525 9.27924 11.4242 9.59897 10.8741C9.62277 10.8331 9.65615 10.7985 9.69627 10.7732C9.73639 10.7479 9.78203 10.7328 9.8293 10.729C9.87656 10.7253 9.92402 10.7331 9.96762 10.7517C10.0112 10.7703 10.0496 10.7992 10.0796 10.836C11.6384 12.7473 13.9044 13.9498 16.3418 14.1713C16.3245 14.0261 16.3159 13.88 16.316 13.7338C16.316 11.7418 17.9369 10.1212 19.9291 10.1212C20.869 10.1212 21.7784 10.4919 22.4492 11.1431C23.1048 10.9972 23.733 10.748 24.3104 10.4049C24.3248 10.3597 24.35 10.3186 24.3838 10.2853C24.4175 10.252 24.4589 10.2273 24.5043 10.2135C24.5497 10.1997 24.5978 10.1971 24.6444 10.2059C24.691 10.2148 24.7348 10.2349 24.7719 10.2644C24.8091 10.2939 24.8385 10.332 24.8577 10.3754C24.8769 10.4188 24.8853 10.4662 24.8821 10.5136C24.8789 10.5609 24.8642 10.6068 24.8394 10.6472C24.8145 10.6877 24.7803 10.7215 24.7395 10.7457C24.5959 11.1957 24.3649 11.6128 24.0596 11.9731C24.3079 11.8981 24.5513 11.8076 24.7884 11.7023C24.8465 11.6766 24.9113 11.6705 24.9731 11.6849C25.0349 11.6993 25.0904 11.7333 25.1312 11.7819C25.1721 11.8305 25.196 11.8911 25.1994 11.9545C25.2029 12.0178 25.1856 12.0806 25.1503 12.1334Z" fill="#FEC753"/>
<path d="M104.585 0C95.5339 0 88.1705 7.36362 88.1705 16.4147C88.1705 25.4661 95.5339 32.83 104.585 32.83C113.636 32.83 121 25.4661 121 16.4147C121 7.36362 113.636 0 104.585 0ZM109.225 10.3623C109.225 10.44 109.194 10.5146 109.139 10.5695C109.084 10.6245 109.009 10.6554 108.931 10.6554L107.065 10.6565C105.834 10.6565 105.609 11.136 105.609 12.0803V14.0391H108.81C108.894 14.0391 108.974 14.0755 109.029 14.1388C109.085 14.2021 109.111 14.2862 109.1 14.3697L108.645 17.8962C108.635 17.9668 108.601 18.0318 108.547 18.0788C108.494 18.1258 108.425 18.1518 108.354 18.1517H105.609V26.9083C105.609 26.986 105.578 27.0606 105.523 27.1155C105.468 27.1705 105.394 27.2014 105.316 27.2014H101.675C101.597 27.2014 101.523 27.1705 101.468 27.1155C101.413 27.0606 101.382 26.986 101.382 26.9083V18.1517H98.6287C98.5509 18.1517 98.4764 18.1209 98.4214 18.0659C98.3665 18.0109 98.3356 17.9364 98.3356 17.8587V14.3322C98.3356 14.2545 98.3665 14.1799 98.4214 14.125C98.4764 14.07 98.5509 14.0391 98.6287 14.0391H101.382V11.7312C101.382 8.67451 103.232 6.77602 106.21 6.77602C107.491 6.77602 108.622 6.87127 108.97 6.91728C109.04 6.92659 109.105 6.96117 109.152 7.0146C109.199 7.06803 109.224 7.13665 109.225 7.20771V10.3623Z" fill="#FEC753"/>
<defs>
<clipPath id="clip0_421_561">
<rect width="32.8295" height="32.8295" fill="white" transform="translate(44.0853)"/>
</clipPath>
</defs>
</svg>
