<svg width="56" height="56" viewBox="0 0 56 56" fill="none" xmlns="http://www.w3.org/2000/svg">
<path d="M29.1667 23.3334H52.5C53.7833 23.3334 54.8333 24.3834 54.8333 25.6667V46.6667C54.8333 47.95 53.7833 49 52.5 49H11.6667" fill="#C1A0EE"/>
<path d="M29.1667 44.3333H46.6667C46.6667 42.35 48.1833 40.8333 50.1667 40.8333V31.5C48.1833 31.5 46.6667 29.9833 46.6667 28H14" fill="#8A4BDE"/>
<path d="M32.6667 23.3334H30.3333V25.6667C30.3333 26.3667 29.8667 26.8334 29.1667 26.8334H26.8333L25.2 29.1667H29.1667C29.8667 29.1667 30.3333 29.6334 30.3333 30.3334V32.6667C30.3333 33.3667 29.8667 33.8334 29.1667 33.8334H24.5H23.3333C22.6333 33.8334 22.1667 34.3 22.1667 35C22.1667 35.7 22.6333 36.1667 23.3333 36.1667H24.5H29.1667H30.3333C31.0333 36.1667 31.5 36.6334 31.5 37.3334V39.6667C31.5 40.3667 31.0333 40.8334 30.3333 40.8334H29.1667H24.5C23.8 40.8334 23.3333 41.3 23.3333 42C23.3333 42.7 23.8 43.1667 24.5 43.1667H29.1667C29.75 43.1667 30.3333 43.6334 30.3333 44.3334V46.6667C30.3333 47.3667 29.8667 47.8334 29.1667 47.8334H15.1667C14.4667 47.8334 14 48.3 14 49H31.7333C32.3167 48.4167 32.6667 47.6 32.6667 46.6667V44.3334C32.6667 43.75 32.4333 43.1667 32.2 42.5834C33.1333 42 33.8333 40.95 33.8333 39.6667V37.3334C33.8333 36.05 33.1333 35 32.2 34.4167C32.4333 33.8334 32.6667 33.25 32.6667 32.6667V30.3334C32.6667 29.4 32.3167 28.5834 31.7333 28C32.3167 27.4167 32.6667 26.6 32.6667 25.6667V23.3334Z" fill="#571EA4"/>
<path d="M46.6667 45.5H29.1667C28.4667 45.5 28 45.0334 28 44.3334C28 43.6334 28.4667 43.1667 29.1667 43.1667H45.6167C46.0833 41.5334 47.3667 40.25 49 39.7834V32.55C47.3667 32.0834 46.0833 30.8 45.6167 29.1667H14C13.3 29.1667 12.8333 28.7 12.8333 28C12.8333 27.3 13.3 26.8334 14 26.8334H46.6667C47.3667 26.8334 47.8333 27.3 47.8333 28C47.8333 29.2834 48.8833 30.3334 50.1667 30.3334C50.5167 30.3334 50.75 30.45 50.9833 30.6834C51.2167 30.9167 51.3333 31.2667 51.3333 31.5V40.8334C51.3333 41.5334 50.8667 42 50.1667 42C48.8833 42 47.8333 43.05 47.8333 44.3334C47.8333 44.6834 47.7167 44.9167 47.4833 45.15C47.25 45.3834 46.9 45.5 46.6667 45.5Z" fill="#010101"/>
<path d="M25.2 29.1667H29.1667C29.8667 29.1667 30.3333 29.6333 30.3333 30.3333V32.6667C30.3333 33.3667 29.8667 33.8333 29.1667 33.8333H24.5H23.3333C22.6333 33.8333 22.1667 34.3 22.1667 35C22.1667 35.7 22.6333 36.1667 23.3333 36.1667H24.5H29.1667H30.3333C31.0333 36.1667 31.5 36.6333 31.5 37.3333V39.6667C31.5 40.3667 31.0333 40.8333 30.3333 40.8333H29.1667H25.9L28.1167 43.1667H29.1667C29.75 43.1667 30.3333 43.6333 30.3333 44.3333H32.6667C32.6667 43.75 32.4333 43.1667 32.2 42.7C33.1333 42 33.8333 40.95 33.8333 39.6667V37.3333C33.8333 36.05 33.1333 35 32.2 34.4167C32.4333 33.8333 32.6667 33.25 32.6667 32.6667V30.3333C32.6667 29.4 32.3167 28.5833 31.7333 28H25.9L25.2 29.1667Z" fill="#571EA4"/>
<path d="M30.3333 32.0834C32.55 32.0834 34.4167 33.95 34.4167 36.1667C34.4167 38.3834 32.55 40.25 30.3333 40.25" fill="#571EA4"/>
<path d="M33.8333 38.2667V37.3333C33.8333 36.05 33.1333 35 32.2 34.4167C32.4333 33.95 32.6667 33.3667 32.6667 32.9C31.9667 32.4333 31.15 32.2 30.3333 32.2V32.6667C30.3333 33.3667 29.8667 33.8333 29.1667 33.8333H28.7L28 34.3L30.3333 36.1667C31.0333 36.1667 31.5 36.6333 31.5 37.3333V39.6667C31.5 39.7833 31.5 39.9 31.3833 40.1333C32.4333 39.7833 33.25 39.0833 33.8333 38.2667Z" fill="#571EA4"/>
<path d="M28 35H22.1667V42L12.8333 49H26.8333C28.1167 49 29.1667 47.95 29.1667 46.6667V44.3333C29.1667 43.05 28.1167 42 26.8333 42H28C29.2833 42 30.3333 40.95 30.3333 39.6667V37.3333C30.3333 36.05 29.2833 35 28 35ZM15.1667 28L22.1667 35H26.8333C28.1167 35 29.1667 33.95 29.1667 32.6667V30.3333C29.1667 29.05 28.1167 28 26.8333 28C28.1167 28 29.1667 26.95 29.1667 25.6667V23.3333C29.1667 22.05 28.1167 21 26.8333 21C28.1167 21 29.1667 19.95 29.1667 18.6667V16.3333C29.1667 15.05 28.1167 14 26.8333 14C28.1167 14 29.1667 12.95 29.1667 11.6667V9.33333C29.1667 8.05 28.1167 7 26.8333 7H12.8333C11.55 7 10.5 8.05 10.5 9.33333V11.6667C10.5 12.95 11.55 14 12.8333 14C11.55 14 10.5 15.05 10.5 16.3333V18.6667C10.5 19.95 11.55 21 12.8333 21C11.55 21 10.5 22.05 10.5 23.3333V25.6667C10.5 26.95 11.55 28 12.8333 28H15.1667Z" fill="#FEC367"/>
<path d="M23.3333 38.5C23.3333 43.1667 20.65 47.1333 16.6833 49H20.8833C23.8 46.4333 25.6667 42.7 25.6667 38.5C25.6667 37.3333 25.55 36.1667 25.2 35H22.75C23.1 36.05 23.3333 37.3333 23.3333 38.5ZM11.6667 24.5C11.3167 24.5 10.85 24.5 10.5 24.6167V25.6667C10.5 26.1333 10.6167 26.4833 10.85 26.8333C11.0833 26.8333 11.4333 26.8333 11.6667 26.8333C16.9167 26.8333 21.35 30.2167 22.75 35H25.2C23.6833 28.9333 18.2 24.5 11.6667 24.5Z" fill="#F8AC4E"/>
<path d="M11.6667 49C17.4657 49 22.1667 44.299 22.1667 38.5C22.1667 32.701 17.4657 28 11.6667 28C5.8677 28 1.16669 32.701 1.16669 38.5C1.16669 44.299 5.8677 49 11.6667 49Z" fill="#FEC367"/>
<path d="M11.6667 45.5C12.3667 45.5 12.8334 45.0333 12.8334 44.3333V44.1C14.2334 43.6333 15.1667 42.35 15.1667 40.8333C15.1667 38.85 13.65 37.3333 11.6667 37.3333C11.0834 37.3333 10.5 36.75 10.5 36.1667C10.5 35.5833 10.9667 35 11.6667 35C12.25 35 12.8334 35.5833 12.8334 36.1667C12.8334 36.8667 13.3 37.3333 14 37.3333C14.7 37.3333 15.1667 36.8667 15.1667 36.1667C15.1667 34.65 14.2334 33.3667 12.8334 32.9V32.6667C12.8334 31.9667 12.3667 31.5 11.6667 31.5C10.9667 31.5 10.5 31.9667 10.5 32.6667V32.9C9.10002 33.3667 8.16669 34.65 8.16669 36.1667C8.16669 38.15 9.68335 39.6667 11.6667 39.6667C12.25 39.6667 12.8334 40.25 12.8334 40.8333C12.8334 41.4167 12.3667 42 11.6667 42C11.0834 42 10.5 41.4167 10.5 40.8333C10.5 40.1333 10.0334 39.6667 9.33335 39.6667C8.63335 39.6667 8.16669 40.1333 8.16669 40.8333C8.16669 42.35 9.10002 43.6333 10.5 44.1V44.3333C10.5 45.0333 11.0834 45.5 11.6667 45.5Z" fill="#010101"/>
<path d="M44.3333 38.5C45.622 38.5 46.6667 37.4554 46.6667 36.1667C46.6667 34.878 45.622 33.8334 44.3333 33.8334C43.0447 33.8334 42 34.878 42 36.1667C42 37.4554 43.0447 38.5 44.3333 38.5Z" fill="#010101"/>
<path d="M52.5 22.1667H30.1C29.9833 21.7 29.75 21.35 29.4 21C29.9833 20.4167 30.3333 19.6 30.3333 18.6667V16.3334C30.3333 15.4 29.9833 14.5834 29.4 14C29.9833 13.4167 30.3333 12.6 30.3333 11.6667V9.33337C30.3333 7.35004 28.8167 5.83337 26.8333 5.83337H12.8333C10.85 5.83337 9.33333 7.35004 9.33333 9.33337V11.6667C9.33333 12.6 9.68333 13.4167 10.2667 14C9.68333 14.5834 9.33333 15.4 9.33333 16.3334V18.6667C9.33333 19.6 9.68333 20.4167 10.2667 21C9.68333 21.5834 9.33333 22.4 9.33333 23.3334V25.6667C9.33333 26.1334 9.45 26.6 9.56667 27.0667C4.2 28 0 32.7834 0 38.5C0 44.9167 5.25 50.1667 11.6667 50.1667H12.8333H26.8333H52.5C54.4833 50.1667 56 48.65 56 46.6667V25.6667C56 23.6834 54.4833 22.1667 52.5 22.1667ZM11.6667 9.33337C11.6667 8.63337 12.1333 8.16671 12.8333 8.16671H26.8333C27.5333 8.16671 28 8.63337 28 9.33337V11.6667C28 12.25 27.5333 12.8334 26.8333 12.8334H12.8333C12.25 12.8334 11.6667 12.25 11.6667 11.6667V9.33337ZM11.6667 16.3334C11.6667 15.75 12.1333 15.1667 12.8333 15.1667H26.8333C27.4167 15.1667 28 15.75 28 16.3334V18.6667C28 19.3667 27.5333 19.8334 26.8333 19.8334H12.8333C12.1333 19.8334 11.6667 19.3667 11.6667 18.6667V16.3334ZM11.6667 23.3334C11.6667 22.6334 12.1333 22.1667 12.8333 22.1667H26.8333C27.5333 22.1667 28 22.6334 28 23.3334V25.6667C28 26.3667 27.5333 26.8334 26.8333 26.8334H15.1667H14H12.8333C12.1333 26.8334 11.6667 26.3667 11.6667 25.6667V23.3334ZM18.6667 29.1667H26.8333C27.4167 29.1667 28 29.75 28 30.3334V32.6667C28 33.3667 27.5333 33.8334 26.8333 33.8334H22.4C21.5833 31.9667 20.3 30.3334 18.6667 29.1667ZM2.33333 38.5C2.33333 33.3667 6.53333 29.1667 11.6667 29.1667C16.8 29.1667 21 33.3667 21 38.5C21 43.6334 16.8 47.8334 11.6667 47.8334C6.53333 47.8334 2.33333 43.6334 2.33333 38.5ZM28 46.6667C28 47.3667 27.5333 47.8334 26.8333 47.8334H18.6667C20.3 46.6667 21.5833 45.0334 22.4 43.1667H26.8333C27.4167 43.1667 28 43.75 28 44.3334V46.6667ZM29.1667 39.6667C29.1667 40.3667 28.7 40.8334 28 40.8334H26.8333H23.1C23.2167 40.1334 23.3333 39.3167 23.3333 38.5C23.3333 37.6834 23.2167 36.8667 23.1 36.1667H28C28.7 36.1667 29.1667 36.6334 29.1667 37.3334V39.6667ZM29.8667 34.4167C30.1 34.0667 30.2167 33.7167 30.3333 33.25C30.3333 33.25 30.3333 33.25 30.45 33.25C32.0833 33.25 33.3667 34.5334 33.3667 36.1667C33.3667 37.3334 32.6667 38.3834 31.6167 38.85V37.3334C31.5 36.05 30.8 35 29.8667 34.4167ZM29.8667 42.5834C30.3333 42.2334 30.8 41.8834 31.0333 41.3C33.6 40.95 35.5833 38.7334 35.5833 36.1667C35.5833 33.25 33.25 30.9167 30.3333 30.9167V30.3334C30.3333 29.9834 30.2167 29.5167 30.1 29.1667H45.6167C46.0833 30.8 47.3667 32.0834 49 32.55V39.7834C47.3667 40.25 46.0833 41.5334 45.6167 43.1667H30.1C29.9833 42.9334 29.9833 42.8167 29.8667 42.5834ZM53.6667 46.6667C53.6667 47.3667 53.2 47.8334 52.5 47.8334H30.1C30.2167 47.4834 30.3333 47.1334 30.3333 46.6667V45.5H46.6667C47.0167 45.5 47.25 45.3834 47.4833 45.15C47.7167 44.9167 47.8333 44.6834 47.8333 44.3334C47.8333 43.05 48.8833 42 50.1667 42C50.8667 42 51.3333 41.5334 51.3333 40.8334V31.5C51.3333 31.15 51.2167 30.9167 50.9833 30.6834C50.75 30.45 50.5167 30.3334 50.1667 30.3334C48.8833 30.3334 47.8333 29.2834 47.8333 28C47.8333 27.3 47.3667 26.8334 46.6667 26.8334H30.1C30.2167 26.4834 30.3333 26.0167 30.3333 25.6667V24.5H52.5C53.2 24.5 53.6667 24.9667 53.6667 25.6667V46.6667Z" fill="#010101"/>
</svg>
