<svg width="56" height="56" viewBox="0 0 56 56" fill="none" xmlns="http://www.w3.org/2000/svg">
<g clip-path="url(#clip0_390_395)">
<path d="M53.375 46.375H4.375C2.975 46.375 1.75 47.6 1.75 49C1.75 50.4 2.975 51.625 4.375 51.625H53.375C54.775 51.625 56 50.4 56 49C56 47.6 54.775 46.375 53.375 46.375Z" fill="#FEC753"/>
<path d="M52.5 55.125V51.625H5.25V55.125" fill="#FFE8B8"/>
<path d="M24.5 15.75V18.375H22.75C21.7 18.375 21 17.675 21 16.625V14.875C21 13.825 21.7 13.125 22.75 13.125H23.625L24.5 15.75ZM43.75 15.75V18.375H45.5C46.55 18.375 47.25 17.675 47.25 16.625V14.875C47.25 13.825 46.55 13.125 45.5 13.125H44.625" fill="#5C5E70"/>
<path d="M43.225 14.525H43.75L45.5 9.62498C46.025 7.34998 44.275 5.24998 42 5.24998C42 2.62498 39.55 0.524981 36.925 1.04998L26.425 2.79998C23.975 3.14998 22.4 5.59998 22.75 7.87498L24.5 14.525H25.025" fill="#A17852"/>
<path d="M29.05 30.2751L20.825 33.0751C17.85 33.9501 15.75 36.7501 15.75 39.9001V46.3751H52.5V39.9001C52.5 36.7501 50.4 33.9501 47.425 32.9001L39.2 30.1001" fill="#8A4BDE"/>
<path d="M43.05 14.525C42.175 14.525 41.475 13.825 41.475 12.95V9.97504C41.475 9.27504 40.775 8.92504 40.25 9.45004C37.275 11.725 33.25 12.6 29.575 11.9L28 11.55C27.125 11.55 26.425 12.25 26.425 13.125C26.425 14 25.725 14.7 24.85 14.7H24.5V17.5C24.5 22.75 28.875 27.125 34.125 27.125C39.375 27.125 43.75 22.75 43.75 17.5V14.525H43.05Z" fill="#FED8AA"/>
<path d="M28.875 25.9V29.575C28.875 32.375 33.95 34.65 33.95 34.65C33.95 34.65 39.025 32.375 39.025 29.575V25.9" fill="#FED8AA"/>
<path d="M52.5 46.375V39.9C52.5 38.5 52.15 37.275 51.45 36.05C47.075 36.575 43.75 40.25 43.75 44.8V46.2H52.5V46.375Z" fill="#8A4BDE"/>
<path d="M53.375 52.5H4.375C2.45 52.5 0.875 50.925 0.875 49C0.875 47.075 2.45 45.5 4.375 45.5H53.375C55.3 45.5 56.875 47.075 56.875 49C56.875 50.925 55.3 52.5 53.375 52.5ZM4.375 47.25C3.325 47.25 2.625 47.95 2.625 49C2.625 50.05 3.325 50.75 4.375 50.75H53.375C54.425 50.75 55.125 50.05 55.125 49C55.125 47.95 54.425 47.25 53.375 47.25H4.375Z" fill="black"/>
<path d="M52.5 56C51.975 56 51.625 55.6501 51.625 55.125V52.5H6.125V55.125C6.125 55.6501 5.775 56 5.25 56C4.725 56 4.375 55.6501 4.375 55.125V51.625C4.375 51.1001 4.725 50.75 5.25 50.75H52.5C53.025 50.75 53.375 51.1001 53.375 51.625V55.125C53.375 55.6501 53.025 56 52.5 56ZM43.75 15.4001H43.225C42.7 15.4001 42.35 15.0501 42.35 14.5251C42.35 14.0001 42.7 13.6501 43.05 13.6501L44.45 9.45005C44.625 8.75005 44.45 7.87505 43.925 7.35005C43.4 6.65005 42.7 6.30005 41.825 6.30005C41.3 6.30005 40.95 5.95005 40.95 5.42505C40.95 4.37505 40.425 3.32505 39.725 2.62505C39.025 1.92505 37.975 1.75005 36.925 1.92505L26.425 3.67505C25.55 3.85005 24.675 4.37505 24.15 5.07505C23.625 5.77505 23.45 6.82505 23.625 7.70005L25.2 13.6501C25.55 13.6501 25.9 14.0001 25.9 14.5251C25.9 15.0501 25.55 15.4001 25.025 15.4001H24.5C24.15 15.4001 23.8 15.0501 23.625 14.7001L21.875 8.05005C21.525 6.65005 21.875 5.25005 22.75 4.02505C23.625 2.80005 24.85 2.10005 26.25 1.92505L36.75 0.175052C38.325 5.18858e-05 39.725 0.350052 40.95 1.40005C42 2.27505 42.525 3.50005 42.7 4.72505C43.75 4.72505 44.8 5.25005 45.325 6.12505C46.2 7.17505 46.55 8.57505 46.2 9.80005L44.45 14.7001C44.45 15.2251 44.1 15.4001 43.75 15.4001Z" fill="black"/>
<path d="M43.575 15.4H43.05C41.825 15.4 40.6 14.35 40.6 12.95V10.325C37.45 12.6 33.25 13.475 29.4 12.775L28 12.425C27.825 12.425 27.475 12.775 27.475 13.125C27.475 14.35 26.425 15.575 25.025 15.575H24.5C23.975 15.575 23.625 15.225 23.625 14.7C23.625 14.175 23.975 13.825 24.5 13.825H25.025C25.375 13.825 25.725 13.475 25.725 13.125C25.725 11.9 26.775 10.675 28.175 10.675L29.925 11.025C33.425 11.725 37.1 10.85 39.9 8.75003C40.425 8.40003 41.125 8.40003 41.65 8.57503C42.175 8.75003 42.525 9.45003 42.525 9.97503V12.95C42.525 13.3 42.875 13.65 43.225 13.65H43.75C44.275 13.65 44.625 14 44.625 14.525C44.625 15.05 44.1 15.4 43.575 15.4ZM52.5 47.25H15.75C15.225 47.25 14.875 46.9 14.875 46.375C14.875 45.85 15.225 45.5 15.75 45.5H51.625V39.9C51.625 37.1 49.875 34.65 47.25 33.775L39.025 30.975C38.5 30.8 38.325 30.275 38.5 29.925C38.675 29.4 39.2 29.225 39.55 29.4L47.775 32.2C51.1 33.25 53.375 36.4 53.375 40.075V46.55C53.375 46.9 53.025 47.25 52.5 47.25Z" fill="black"/>
<path d="M52.5 47.25H43.75C43.225 47.25 42.875 46.9 42.875 46.375V44.975C42.875 40.075 46.55 35.875 51.45 35.35C51.8 35.35 52.15 35.525 52.325 35.7C53.025 36.925 53.55 38.5 53.55 39.9V46.375C53.375 46.9 53.025 47.25 52.5 47.25ZM44.625 45.5H51.625V39.9C51.625 39.025 51.45 37.975 50.925 37.1C47.25 37.8 44.45 41.125 44.45 44.975V45.5H44.625ZM42.875 23.8H36.75C36.225 23.8 35.875 23.45 35.875 22.925C35.875 22.4 36.225 22.05 36.75 22.05H42.875C44.8 22.05 46.375 20.475 46.375 18.55V15.575C46.375 15.05 46.725 14.7 47.25 14.7C47.775 14.7 48.125 15.05 48.125 15.575V18.55C48.125 21.35 45.675 23.8 42.875 23.8ZM24.5 19.25H22.75C21.35 19.25 20.125 18.025 20.125 16.625V14.875C20.125 13.475 21.35 12.25 22.75 12.25H23.625C24.15 12.25 24.5 12.6 24.5 13.125C24.5 13.65 24.15 14 23.625 14H22.75C22.225 14 21.875 14.35 21.875 14.875V16.625C21.875 17.15 22.225 17.5 22.75 17.5H23.625V15.75C23.625 15.225 23.975 14.875 24.5 14.875C25.025 14.875 25.375 15.225 25.375 15.75V18.375C25.375 18.9 25.025 19.25 24.5 19.25Z" fill="black"/>
<path d="M45.5 19.25H43.75C43.225 19.25 42.875 18.9 42.875 18.375V15.75C42.875 15.225 43.225 14.875 43.75 14.875C44.275 14.875 44.625 15.225 44.625 15.75V17.5H45.5C46.025 17.5 46.375 17.15 46.375 16.625V14.875C46.375 14.35 46.025 14 45.5 14H44.625C44.1 14 43.75 13.65 43.75 13.125C43.75 12.6 44.1 12.25 44.625 12.25H45.5C46.9 12.25 48.125 13.475 48.125 14.875V16.625C48.125 18.025 46.9 19.25 45.5 19.25Z" fill="black"/>
<path d="M35 41.125H5.25V43.75C5.25 45.15 6.475 46.375 7.875 46.375H32.375C33.775 46.375 35 45.15 35 43.75V41.125Z" fill="#5A5D70"/>
<path d="M32.375 47.25H7.875C5.95 47.25 4.375 45.675 4.375 43.75V41.125C4.375 40.6 4.725 40.25 5.25 40.25H35C35.525 40.25 35.875 40.6 35.875 41.125V43.75C35.875 45.675 34.3 47.25 32.375 47.25ZM6.125 42V43.75C6.125 44.8 6.825 45.5 7.875 45.5H32.375C33.425 45.5 34.125 44.8 34.125 43.75V42H6.125Z" fill="black"/>
<path d="M5.25 23.625H31.5V41.125H5.25V23.625Z" fill="#898B99"/>
<path d="M31.5 42H5.25C4.725 42 4.375 41.65 4.375 41.125V23.625C4.375 23.1 4.725 22.75 5.25 22.75H31.5C32.025 22.75 32.375 23.1 32.375 23.625V41.125C32.375 41.65 32.025 42 31.5 42ZM6.125 40.25H30.625V24.5H6.125V40.25Z" fill="black"/>
<path d="M34.125 35.525H33.775C33.775 35.525 32.375 34.825 30.975 33.95C30.625 33.6 30.45 33.075 30.8 32.725C31.15 32.375 31.675 32.2 32.025 32.55C32.9 33.075 33.6 33.6 34.125 33.775C35.525 33.075 38.325 31.325 38.325 29.575V25.9C38.325 25.375 38.675 25.025 39.2 25.025C39.725 25.025 40.075 25.375 40.075 25.9V29.575C40.075 32.9 35 35.175 34.475 35.525H34.125Z" fill="black"/>
<path d="M34.125 28C33.25 28 32.2 27.825 31.325 27.65C30.975 27.475 30.625 27.125 30.625 26.775V24.5H26.775C26.6 24.5 26.25 24.325 26.075 24.15C24.5 22.225 23.625 19.95 23.625 17.5V14.875C23.625 14.35 23.975 14 24.5 14C25.025 14 25.375 14.35 25.375 14.875V17.5C25.375 19.425 26.075 21.35 27.125 22.75H31.5C32.025 22.75 32.375 23.1 32.375 23.625V26.075C32.9 26.25 33.6 26.25 34.125 26.25C39.025 26.25 42.875 22.4 42.875 17.5V14.875C42.875 14.35 43.225 14 43.75 14C44.275 14 44.625 14.35 44.625 14.875V17.5C44.625 23.275 39.9 28 34.125 28Z" fill="black"/>
<path d="M18.375 34.125C19.3415 34.125 20.125 33.3415 20.125 32.375C20.125 31.4085 19.3415 30.625 18.375 30.625C17.4085 30.625 16.625 31.4085 16.625 32.375C16.625 33.3415 17.4085 34.125 18.375 34.125Z" fill="black"/>
</g>
<defs>
<clipPath id="clip0_390_395">
<rect width="56" height="56" fill="white"/>
</clipPath>
</defs>
</svg>
