<svg width="1512" height="736" viewBox="0 0 1512 736" fill="none" xmlns="http://www.w3.org/2000/svg">
<path d="M1512 0H0V706L63 682C84.2879 673.89 108.773 676.399 134.661 679.052C185.386 684.25 241.498 690 289.5 617.5C338.855 542.956 463.057 601.652 587.805 660.606C646.303 688.251 704.922 715.954 756 730C834.363 751.55 895.335 708.814 952.485 668.757C1012.02 627.026 1067.41 588.202 1134 628C1216.79 677.481 1305.41 675.451 1369.23 673.99C1406.01 673.147 1434.56 672.494 1449 682C1488.5 708 1512 706 1512 706V0Z" fill="#16002B"/>
</svg>
