<svg width="136" height="81" viewBox="0 0 136 81" fill="none" xmlns="http://www.w3.org/2000/svg">
<path d="M85.7075 12.7343C85.7075 5.70133 80.0062 0 72.9733 0H63.4687C61.685 0 60.239 1.44599 60.239 3.22971C60.239 5.01342 61.685 6.45941 63.4687 6.45941H72.881C76.4484 6.45941 79.3404 9.3514 79.3404 12.9188C79.3404 16.4863 76.4484 19.3782 72.881 19.3782H63.4687C61.685 19.3782 60.239 20.8242 60.239 22.608C60.239 24.3917 61.685 25.8377 63.4687 25.8377H72.9733C80.0062 25.8377 85.7075 20.1363 85.7075 13.1034V12.7343Z" fill="#FEC753"/>
<path d="M62.2459 9.81836C55.5111 9.81836 50.0516 15.278 50.0516 22.0127V32.4725C50.0516 34.2307 51.4769 35.656 53.2351 35.656C54.9934 35.656 56.4187 34.2307 56.4187 32.4725V22.1209C56.4187 18.8938 59.0347 16.2778 62.2618 16.2778H72.8466C74.6303 16.2778 76.0763 14.8318 76.0763 13.0481C76.0763 11.2643 74.6303 9.81836 72.8466 9.81836H62.2459Z" fill="#8A4BDE"/>
<path d="M5.1438 65.2789V72.656H2.16126V49.6026H8.70267C10.5565 49.8523 12.1223 50.616 13.3998 51.8935C14.9271 53.4304 15.6907 55.2747 15.6907 57.4263C15.6907 59.5972 14.9271 61.4511 13.3998 62.988C11.8725 64.5153 10.0282 65.2789 7.86698 65.2789H5.1438ZM5.1438 52.5995V62.282H7.86698C9.19255 62.282 10.326 61.8113 11.2674 60.8699C12.2183 59.919 12.6938 58.7711 12.6938 57.4263C12.6938 56.0912 12.2183 54.9529 11.2674 54.0115C10.326 53.0702 9.19255 52.5995 7.86698 52.5995H5.1438ZM30.2 65.9417V63.7516C30.0271 62.8199 29.566 61.9746 28.8168 61.2157C27.8082 60.2168 26.5979 59.7173 25.1859 59.7173C23.7642 59.7173 22.5491 60.2168 21.5405 61.2157C20.5416 62.2147 20.0421 63.425 20.0421 64.8467C20.0421 66.2587 20.5416 67.469 21.5405 68.4776C22.5491 69.4766 23.7642 69.976 25.1859 69.976C26.5979 69.976 27.8082 69.4766 28.8168 68.4776C29.566 67.7187 30.0271 66.8734 30.2 65.9417ZM30.2 58.8672V57.8298H33.1969V72.6704H30.2V70.8117C28.7592 72.3006 27.0878 73.045 25.1859 73.045C22.9189 73.045 20.9834 72.2478 19.3793 70.6532C17.7848 69.0491 16.9875 67.1136 16.9875 64.8467C16.9875 62.5797 17.7848 60.649 19.3793 59.0545C20.9834 57.4503 22.9189 56.6483 25.1859 56.6483C27.0878 56.6483 28.7592 57.3879 30.2 58.8672ZM41.1936 77.6413H38.0382L41.9861 69.3565L36.4676 57.8298H39.8248L43.5854 65.9417L47.346 57.8298H50.6887L41.1936 77.6413ZM56.9708 61.8065V72.656H53.9738V57.8298H56.9708V59.5588C57.5951 57.8682 58.8487 57.0229 60.7314 57.0229C62.3355 57.0229 63.6083 57.5944 64.5496 58.7375C65.5006 59.871 65.9904 61.2974 66.0193 63.0168V72.656H63.0367V63.1321C63.0367 62.2772 62.7245 61.5471 62.1002 60.942C61.4758 60.3272 60.7314 60.0198 59.8669 60.0198C59.012 60.0198 58.2723 60.3176 57.648 60.9132C57.3022 61.2686 57.0764 61.5663 56.9708 61.8065ZM83.2517 65.9417V63.7516C83.0788 62.8199 82.6177 61.9746 81.8685 61.2157C80.8599 60.2168 79.6496 59.7173 78.2376 59.7173C76.8159 59.7173 75.6008 60.2168 74.5922 61.2157C73.5933 62.2147 73.0938 63.425 73.0938 64.8467C73.0938 66.2587 73.5933 67.469 74.5922 68.4776C75.6008 69.4766 76.8159 69.976 78.2376 69.976C79.6496 69.976 80.8599 69.4766 81.8685 68.4776C82.6177 67.7187 83.0788 66.8734 83.2517 65.9417ZM83.2517 58.8672V57.8298H86.2486V72.6704H83.2517V70.8117C81.8108 72.3006 80.1395 73.045 78.2376 73.045C75.9706 73.045 74.0351 72.2478 72.431 70.6532C70.8365 69.0491 70.0392 67.1136 70.0392 64.8467C70.0392 62.5797 70.8365 60.649 72.431 59.0545C74.0351 57.4503 75.9706 56.6483 78.2376 56.6483C80.1395 56.6483 81.8108 57.3879 83.2517 58.8672ZM102.343 67.5698L105.325 68.6361C104.595 69.6447 104.067 70.3122 103.74 70.6388C102.136 72.243 100.201 73.045 97.9338 73.045C95.6765 73.045 93.7458 72.243 92.1417 70.6388C90.5375 69.0347 89.7355 67.0992 89.7355 64.8322C89.7355 62.5653 90.5375 60.6298 92.1417 59.0257C93.7458 57.4215 95.6765 56.6195 97.9338 56.6195C100.201 56.6195 102.136 57.4215 103.74 59.0257C104.067 59.3523 104.595 60.0102 105.325 60.9996L102.343 62.0947C101.959 61.624 101.699 61.3214 101.565 61.1869C100.566 60.1879 99.3555 59.6885 97.9338 59.6885C96.5218 59.6885 95.3115 60.1927 94.3029 61.2013C93.3039 62.2003 92.8045 63.4106 92.8045 64.8322C92.8045 66.2443 93.3039 67.4546 94.3029 68.4632C95.3115 69.4621 96.5218 69.9616 97.9338 69.9616C99.3555 69.9616 100.571 69.4621 101.579 68.4632C101.704 68.3287 101.959 68.0309 102.343 67.5698ZM111.78 49.5882V72.656H108.783V49.5882H111.78ZM120.714 69.2989C121.213 69.7407 122.121 69.9616 123.437 69.9616C124.858 69.9616 126.073 69.4621 127.082 68.4632C127.207 68.3287 127.461 68.0309 127.846 67.5698L130.828 68.6361C130.098 69.6447 129.57 70.3122 129.243 70.6388C127.639 72.243 125.704 73.045 123.437 73.045C121.179 73.045 119.249 72.243 117.645 70.6388C116.04 69.0347 115.238 67.0992 115.238 64.8322C115.238 62.5653 116.04 60.6298 117.645 59.0257C119.249 57.4215 121.179 56.6195 123.437 56.6195C125.377 56.6195 127.077 57.2054 128.537 58.3773C128.777 58.579 129.013 58.7951 129.243 59.0257C129.339 59.1217 129.613 59.4243 130.065 59.9334L128.566 61.4463L120.714 69.2989ZM125.699 60.0775C125.363 59.8181 124.609 59.6885 123.437 59.6885C122.025 59.6885 120.814 60.1927 119.806 61.2013C118.807 62.2003 118.307 63.4106 118.307 64.8322C118.307 65.9945 118.437 66.7486 118.696 67.0944L125.699 60.0775Z" fill="#FAF8FC"/>
</svg>
