<svg width="56" height="57" viewBox="0 0 56 57" fill="none" xmlns="http://www.w3.org/2000/svg">
<path d="M54.6875 29.5762C54.39 29.8824 54.0487 30.1449 53.6812 30.3462C54.1712 31.0637 54.4512 31.9299 54.4512 32.8574C54.4512 34.0474 53.9875 35.1674 53.1387 36.0162C52.9025 36.2524 52.6488 36.4537 52.3775 36.6287C52.9287 37.3812 53.2525 38.2999 53.2525 39.2974C53.2525 40.4699 52.7713 41.6162 51.94 42.4562C51.6075 42.7887 51.2225 43.0687 50.8112 43.2787C51.275 43.9874 51.5462 44.8274 51.5462 45.7374C51.5462 46.9274 51.0737 48.0475 50.2337 48.8962C49.385 49.7362 48.265 50.1999 47.075 50.1999H29.7063C29.5925 50.1999 29.4788 50.1999 29.3737 50.1912C29.1725 50.1999 28.8225 50.2174 28.3587 50.2174C26.495 50.2174 22.9075 49.9812 21.1225 48.2924C20.3962 47.6012 20.0113 46.7174 20.0113 45.7374C20.0113 45.0374 20.5712 44.4774 21.2625 44.4774C21.9537 44.4774 22.5138 45.0374 22.5138 45.7374C22.5138 46.0262 22.6187 46.2537 22.8463 46.4724C24.0013 47.5574 27.3438 47.7937 29.3125 47.6799C29.365 47.6799 29.435 47.6799 29.4875 47.6887C29.5575 47.6887 29.6275 47.6974 29.7063 47.6974H47.075C47.5912 47.6974 48.09 47.4874 48.4575 47.1199C48.8338 46.7437 49.035 46.2537 49.035 45.7374C49.035 44.6437 48.1512 43.7687 47.075 43.7687C46.3838 43.7687 45.815 43.1999 45.815 42.5087C45.815 41.8174 46.3838 41.2574 47.075 41.2574H48.7812C49.2975 41.2574 49.805 41.0474 50.1725 40.6799C50.5312 40.3124 50.7413 39.8137 50.7413 39.2974C50.7413 38.2124 49.8662 37.3287 48.7812 37.3287C48.09 37.3287 47.53 36.7687 47.53 36.0687C47.53 35.3774 48.09 34.8174 48.7812 34.8174H49.98C50.505 34.8174 50.995 34.6162 51.3713 34.2399C51.7388 33.8724 51.9487 33.3824 51.9487 32.8574C51.9487 31.7724 51.065 30.8974 49.98 30.8974C49.2887 30.8974 48.7287 30.3374 48.7287 29.6374C48.7287 28.9462 49.2887 28.3862 49.98 28.3862H51.5287C52.0537 28.3862 52.5438 28.1849 52.9113 27.8087C53.375 27.3449 53.5763 26.6887 53.4538 26.0499C53.2875 25.1399 52.395 24.4574 51.3713 24.4574H35.1575C34.5887 24.4574 34.0462 24.1774 33.7137 23.7137C33.3812 23.2499 33.2937 22.6462 33.4775 22.1037C34.51 19.0762 35.0262 15.9087 35.0262 12.7062V10.4487C35.0262 9.87995 34.8075 9.3462 34.405 8.9437C34.0112 8.54995 33.4775 8.3312 32.9 8.3312H30.6512V12.4437C30.6512 15.0337 29.8375 17.4837 28.2975 19.5399C25.5325 23.2412 24.01 26.4349 24.01 28.5349C24.01 29.2262 23.45 29.7862 22.7588 29.7862H21.2625C20.5712 29.7862 20.0113 29.2262 20.0113 28.5349C20.0113 27.8437 20.5712 27.2837 21.2625 27.2837H21.6125C22.1287 24.1599 24.3687 20.6074 26.2937 18.0349C27.5012 16.4162 28.14 14.4824 28.14 12.4437V7.0712C28.14 6.37995 28.7087 5.81995 29.4 5.81995H32.9C34.1425 5.81995 35.3062 6.3012 36.1812 7.1762C37.0562 8.0512 37.5375 9.21495 37.5375 10.4487V12.7062C37.5375 15.8474 37.0738 18.9537 36.1637 21.9462H51.3713C53.6112 21.9462 55.5275 23.4774 55.9212 25.5862C56.1925 27.0387 55.7375 28.5349 54.6875 29.5762ZM9.73875 24.9387H1.25125C0.56 24.9387 0 25.4987 0 26.1899V49.9287C0 50.6199 0.56 51.1799 1.25125 51.1799H9.73875C10.43 51.1799 10.99 50.6199 10.99 49.9287V26.1899C10.99 25.4987 10.43 24.9387 9.73875 24.9387ZM8.47875 48.6687H2.51125V27.4412H8.47875V48.6687Z" fill="black"/>
<path d="M8.47873 27.4413H2.51123V48.6688H8.47873V27.4413Z" fill="#FEC753"/>
<path d="M17.0537 47.6713H13.4137C12.7225 47.6713 12.1625 47.1113 12.1625 46.4201C12.1625 45.7288 12.7225 45.1688 13.4137 45.1688H15.8025V27.4413H13.4137C12.7225 27.4413 12.1625 26.8813 12.1625 26.1901C12.1625 25.4988 12.7225 24.9388 13.4137 24.9388H17.0537C17.745 24.9388 18.305 25.4988 18.305 26.1901V46.4113C18.3137 47.1113 17.745 47.6713 17.0537 47.6713Z" fill="black"/>
<path d="M48.7288 29.6375C48.7288 30.3375 49.2888 30.8976 49.98 30.8976C51.065 30.8976 51.9488 31.7725 51.9488 32.8575C51.9488 33.3825 51.7388 33.8726 51.3713 34.2401C50.995 34.6163 50.505 34.8176 49.98 34.8176H48.7813C48.09 34.8176 47.53 35.3776 47.53 36.0688C47.53 36.7688 48.09 37.3288 48.7813 37.3288C49.8663 37.3288 50.7413 38.2126 50.7413 39.2976C50.7413 39.8138 50.5313 40.3125 50.1725 40.68C49.805 41.0476 49.2975 41.2576 48.7813 41.2576H47.075C46.3838 41.2576 45.815 41.8176 45.815 42.5088C45.815 43.2001 46.3838 43.7688 47.075 43.7688C48.1513 43.7688 49.035 44.6438 49.035 45.7376C49.035 46.2538 48.8338 46.7438 48.4575 47.12C48.09 47.4875 47.5913 47.6975 47.075 47.6975H29.7063C29.6275 47.6975 29.5575 47.6888 29.4875 47.6888C29.435 47.68 29.365 47.68 29.3125 47.68C27.3438 47.7938 24.0013 47.5576 22.8463 46.4726C22.6188 46.2538 22.5138 46.0263 22.5138 45.7376C22.5138 45.0376 21.9538 44.4776 21.2625 44.4776C20.5713 44.4776 20.0113 45.0376 20.0113 45.7376V28.535C20.0113 29.2263 20.5713 29.7863 21.2625 29.7863H22.7588C23.45 29.7863 24.01 29.2263 24.01 28.535C24.01 26.4351 25.5325 23.2413 28.2975 19.54C29.8375 17.4838 30.6513 15.0338 30.6513 12.4438V8.3313H32.9C33.4775 8.3313 34.0113 8.55005 34.405 8.9438C34.8075 9.3463 35.0263 9.88005 35.0263 10.4488V12.7063C35.0263 15.9088 34.51 19.0763 33.4775 22.1038C33.2938 22.6463 33.3813 23.2501 33.7138 23.7138C34.0463 24.1776 34.5888 24.4576 35.1575 24.4576H51.3713C52.395 24.4576 53.2875 25.1401 53.4538 26.0501C53.5763 26.6888 53.375 27.345 52.9113 27.8088C52.5438 28.185 52.0538 28.3863 51.5288 28.3863H49.98C49.2888 28.3863 48.7288 28.9463 48.7288 29.6375Z" fill="#8A4BDE"/>
</svg>
